<?xml version="1.0" standalone="no"?>
<!DOCTYPE svg PUBLIC "-//W3C//DTD SVG 20010904//EN"
 "http://www.w3.org/TR/2001/REC-SVG-20010904/DTD/svg10.dtd">
<svg version="1.0" xmlns="http://www.w3.org/2000/svg"
 width="200.000000pt" height="200.000000pt" viewBox="0 0 200.000000 200.000000"
 preserveAspectRatio="xMidYMid meet">
<metadata>
Created by potrace 1.11, written by Peter Selinger 2001-2013
</metadata>
<g transform="translate(0.000000,200.000000) scale(0.100000,-0.100000)"
fill="#000000" stroke="none">
<path d="M895 1889 c-76 -60 -141 -111 -143 -113 -2 -2 15 -17 38 -32 34 -24
39 -33 34 -54 -23 -94 -9 -163 44 -222 158 -175 440 -29 383 198 -11 42 -10
47 11 64 13 11 26 19 29 20 3 0 6 -21 7 -47 0 -69 1 -73 12 -73 6 0 10 31 10
73 l0 73 -132 104 c-73 57 -138 107 -143 111 -6 5 -70 -39 -150 -102z m290
-288 c-9 -52 -22 -77 -54 -104 -65 -54 -159 -44 -212 23 -26 33 -44 92 -31
104 3 3 72 6 154 6 l148 0 -5 -29z"/>
<path d="M968 1363 c-97 -25 -162 -84 -197 -180 -16 -42 -18 -83 -17 -333 l1
-285 33 -3 32 -3 1 -67 c0 -37 0 -163 0 -279 l-1 -213 95 0 95 0 1 43 c0 23 1
144 1 269 l0 228 24 0 23 0 -2 -270 -2 -270 98 0 97 0 0 280 0 280 34 0 35 0
-2 303 c-2 292 -3 303 -25 344 -68 129 -193 189 -324 156z m-28 -1048 l0 -245
-23 0 -23 0 2 238 c1 130 2 240 3 245 0 4 10 7 21 7 19 0 20 -7 20 -245z m236
3 l-1 -243 -22 -3 -23 -3 0 245 0 246 23 0 23 0 0 -242z"/>
</g>
</svg>
